<svg xmlns="http://www.w3.org/2000/svg" xmlns:xlink="http://www.w3.org/1999/xlink" id="Layer_2" data-name="Layer 2" width="273" height="76" viewBox="0 0 273 76"><defs><clipPath id="clippath"><rect width="273" height="76" style="fill: none;"></rect></clipPath></defs><g id="Logo"><g style="clip-path: url(#clippath);"><g id="Groupe_223" data-name="Groupe 223"><path id="Trac&#xE9;_67521" data-name="Trac&#xE9; 67521" d="M57.26,59.22c.26,.1,.51,.2,.76,.3-.25-.1-.51-.2-.76-.3" style="fill: #fff;"></path><path id="Trac&#xE9;_67522" data-name="Trac&#xE9; 67522" d="M54.18,9.54c-2.37,4.48-4.04,.49-5.11-1.46-1.12-2.05,.11-7.07,2.99-7.93,3.55-1.07,4.96,4.02,2.11,9.39" style="fill: #6d2077;"></path><path id="Trac&#xE9;_67523" data-name="Trac&#xE9; 67523" d="M43.61,19.31c-16.11,1.96-34.8-1.62-37.83-2.73,3.25,1.23,21.73,4.77,37.83,2.73" style="fill: #fff;"></path><path id="Trac&#xE9;_67524" data-name="Trac&#xE9; 67524" d="M55.61,58.66c-1.31-.4-2.65-.73-4-.99-1.78-.35-3.58-.57-5.38-.67,0-.04,.02-.07,.03-.1l3.13-18.52c2.79-10.71,7.55-1.58,6.23,20.27v.02M76.75,8.46l.09-.04c-6.33,3.14-12.9,5.77-19.64,7.87-.69-1.9-1.63-3.18-2.9-3.58-.99-.4-2.12-.17-2.88,.58-1.22,1.47-2.15,3.15-2.75,4.96l-.03,.24c-1.68,.34-3.36,.62-5.03,.83,1.05-.13,.04,.43-1.36,.83-1.04,.3-9.58,2.83-11.5,2.88,3.79-.13,11.99,.22,17.35-.47l-4.45,33.72c-.04,.22-.05,.44-.02,.66-2.35,0-4.7,.18-7.03,.52l-.07,.03c-1.46,.51-2.85,1.18-4.17,1.98-.69,.46,.49,.43,.49,.43,6.15,.12,12.28,.86,18.29,2.22,1.17,.27,2.32,.56,3.39,.87-8.49,1.94-19.41,10.36-19.41,11.51,0,0,.92,2.03,2.26,1.38,12.25-9.78,17.3-11.91,19.32-12.22,15.21,4.94,19.67,12.84,19.62,11.73-4.09-7.23-10.56-12.83-18.3-15.85-.26-.1-.5-.21-.77-.3-.08-.03-.16-.07-.24-.1,.53-6.33,3.08-27.75,1.1-39.19,5.61-1.77,10.99-4.2,16.02-7.25,4.59-3.97,8.92-7.49,2.62-4.23" style="fill: #6d2077;"></path><path id="Trac&#xE9;_67525" data-name="Trac&#xE9; 67525" d="M25.46,35.83c3.86-.53,3.59,5.68,3.46,4.65l-.2,18.22c-.46,.09-.91,.17-1.37,.27-.69,.15-1.37,.33-2.04,.55-1.55-10.5-2.2-23.36,.15-23.69m7.19,26.61c6.16-1.14,12.47-1.24,18.67-.32-6-1.44-12.15-2.21-18.32-2.3,0,0-1.05,.05-.36-.41,1.3-.8,2.69-1.47,4.13-1.98-1.84,.21-3.9,.51-6.05,.89l1.68-35.56c3.17-.66,9.01-2.39,9.86-2.63,1.39-.4,2.4-.96,1.36-.83-4.02,.48-8.07,.68-12.11,.61-.78-1.83-1.98-3.45-3.51-4.72-.97-.78-2.34,.08-4.17,1.63-.75,.71-1.32,1.59-1.65,2.57-8.13-.76-14.58-2.14-16.38-2.82-5.63-1.94-7.03-3-4.73-.45,2.43,1.88,6.08,3.43,11.45,4.62,2.93,.66,5.89,1.16,8.88,1.51-1.98,10.07,.68,29.71,1.96,37.97-6.9,2.79-14.11,8.66-16.65,11.96l1.8-.45c5.51-3.55,11.55-6.21,17.89-7.88,3.44-.04,6.86,.47,10.13,1.52,9.6,2.86,19.09,9.63,19.09,9.63,0,0,3.93-.81,3.82-2.82-.03-.51-14.51-8.07-26.78-9.74" style="fill: #322956;"></path><path id="Trac&#xE9;_67526" data-name="Trac&#xE9; 67526" d="M27.99,13.13c4.1-4.47,2.64-11.9,.12-11.87-2.06,.01-3.96,.7-4.26,3.65-.29,2.78,1.35,11.27,4.14,8.22" style="fill: #322956;"></path><path id="Trac&#xE9;_67527" data-name="Trac&#xE9; 67527" d="M92.02,73.22c-.68,.48-1.49,.74-2.32,.75-2.54,0-4.04-1.96-4.04-4.56s1.49-4.56,4.04-4.56c.83,0,1.64,.26,2.32,.73v1.07c-.61-.55-1.39-.85-2.21-.86-1.86,0-2.93,1.5-2.93,3.61s1.07,3.6,2.93,3.6c.82-.01,1.6-.31,2.21-.85v1.06Z" style="fill: #6d2077;"></path><path id="Trac&#xE9;_67528" data-name="Trac&#xE9; 67528" d="M98.11,70.63l-1.49-4.31-1.49,4.31h2.99Zm2.23,3.14h-1.15l-.78-2.24h-3.56l-.77,2.24h-1.15l3.16-8.73h1.1l3.17,8.73Z" style="fill: #6d2077;"></path><path id="Trac&#xE9;_67529" data-name="Trac&#xE9; 67529" d="M104.45,65.96h-1.54v3.04h1.54c.84,.08,1.58-.54,1.66-1.38,.08-.84-.54-1.58-1.38-1.66-.09,0-.19,0-.28,0m3.85,7.78c-.27,.11-.55,.16-.84,.16-.59,.04-1.11-.37-1.23-.94l-.4-1.83c-.08-.74-.75-1.28-1.49-1.2,0,0-.02,0-.03,0h-1.4v3.86h-1.13v-8.73h2.53c1.91,0,2.92,.96,2.92,2.36,.01,.99-.66,1.85-1.63,2.07,.71,.13,1.25,.71,1.34,1.43l.39,1.66c.02,.24,.23,.43,.47,.43,.17,0,.34-.04,.5-.12v.86Z" style="fill: #6d2077;"></path><rect id="Rectangle_664" data-name="Rectangle 664" x="109.7" y="65.04" width="1.14" height="8.73" style="fill: #6d2077;"></rect><path id="Trac&#xE9;_67530" data-name="Trac&#xE9; 67530" d="M118.76,65.98h-2.63v7.79h-1.14v-7.79h-2.63v-.94h6.41v.94Z" style="fill: #6d2077;"></path><path id="Trac&#xE9;_67531" data-name="Trac&#xE9; 67531" d="M124.34,70.63l-1.49-4.31-1.49,4.31h2.99Zm2.23,3.14h-1.15l-.79-2.24h-3.56l-.77,2.24h-1.15l3.16-8.73h1.1l3.17,8.73Z" style="fill: #6d2077;"></path><path id="Trac&#xE9;_67532" data-name="Trac&#xE9; 67532" d="M129.91,73.97c-.92,0-1.83-.26-2.61-.75v-1.06c.73,.55,1.61,.85,2.52,.86,1.25,0,1.97-.66,1.97-1.52,0-2.3-4.34-1.1-4.34-4.21,.1-1.45,1.36-2.54,2.81-2.44,.01,0,.03,0,.04,0,.87,0,1.72,.25,2.45,.73v1.07c-.67-.54-1.5-.85-2.36-.88-.86-.11-1.65,.5-1.75,1.36,0,.02,0,.04,0,.05,0,2.25,4.35,1.03,4.35,4.2,0,1.47-1.15,2.57-3.08,2.57" style="fill: #6d2077;"></path><path id="Trac&#xE9;_67533" data-name="Trac&#xE9; 67533" d="M143.93,73.22c-.68,.48-1.49,.74-2.32,.75-2.54,0-4.03-1.96-4.03-4.56s1.49-4.56,4.03-4.56c.83,0,1.64,.26,2.32,.73v1.07c-.61-.55-1.4-.85-2.22-.86-1.86,0-2.93,1.5-2.93,3.61s1.07,3.6,2.93,3.6c.82-.01,1.6-.31,2.22-.85v1.06Z" style="fill: #6d2077;"></path><path id="Trac&#xE9;_67534" data-name="Trac&#xE9; 67534" d="M150.02,70.63l-1.49-4.31-1.49,4.31h2.99Zm2.23,3.14h-1.15l-.79-2.24h-3.56l-.77,2.24h-1.15l3.16-8.73h1.1l3.17,8.73Z" style="fill: #6d2077;"></path><path id="Trac&#xE9;_67535" data-name="Trac&#xE9; 67535" d="M160.1,73.77h-1.39l-3.95-7.16v7.16h-1.06v-8.73h1.39l3.96,7.16v-7.16h1.06v8.73Z" style="fill: #6d2077;"></path><path id="Trac&#xE9;_67536" data-name="Trac&#xE9; 67536" d="M166.74,70.63l-1.49-4.31-1.49,4.31h2.99Zm2.22,3.14h-1.15l-.78-2.24h-3.56l-.77,2.24h-1.15l3.16-8.73h1.1l3.17,8.73Z" style="fill: #6d2077;"></path><path id="Trac&#xE9;_67537" data-name="Trac&#xE9; 67537" d="M172.65,65.98h-1.11v6.86h1.11c1.9-.13,3.32-1.78,3.19-3.67-.12-1.71-1.48-3.07-3.19-3.19m.04,7.79h-2.28v-8.73h2.28c2.41,.04,4.34,2.02,4.3,4.43-.04,2.36-1.94,4.26-4.3,4.3" style="fill: #6d2077;"></path><path id="Trac&#xE9;_67538" data-name="Trac&#xE9; 67538" d="M183.14,70.63l-1.49-4.31-1.49,4.31h2.99Zm2.23,3.14h-1.15l-.78-2.24h-3.56l-.77,2.24h-1.15l3.16-8.73h1.1l3.17,8.73Z" style="fill: #6d2077;"></path><path id="Trac&#xE9;_67539" data-name="Trac&#xE9; 67539" d="M89.06,23.96h2.97c3.64,0,5.88-2.32,5.88-6.63s-2.24-6.63-5.88-6.63h-2.97v13.26Zm-3.34,2.8V7.9h6.52c5.66,0,9.06,3.72,9.06,9.43s-3.4,9.43-9.06,9.43h-6.52Z" style="fill: #322956;"></path><path id="Trac&#xE9;_67540" data-name="Trac&#xE9; 67540" d="M108.71,11.3l-1.35-1.37,3.83-3.85,1.83,1.75-4.31,3.48Zm-2.97,7.22h7.17c-.02-1.93-1.6-3.47-3.53-3.45,0,0-.02,0-.03,0-1.99,0-3.32,1.29-3.61,3.45m10.33,2.42h-10.3c.19,2.06,1.95,3.62,4.02,3.56,1.37-.01,2.66-.67,3.48-1.78l2.24,1.59c-2.47,3.15-7.03,3.7-10.19,1.23-1.77-1.39-2.79-3.51-2.78-5.76,0-4.23,2.72-7.3,6.82-7.3s6.77,3.04,6.77,7.38c0,.36,0,.72-.05,1.08" style="fill: #322956;"></path><path id="Trac&#xE9;_67541" data-name="Trac&#xE9; 67541" d="M121.76,26.76l-5.31-13.96h3.34l3.72,10.5,3.69-10.5h3.34l-5.28,13.96h-3.51Z" style="fill: #322956;"></path><path id="Trac&#xE9;_67542" data-name="Trac&#xE9; 67542" d="M133.88,18.52h7.17c-.02-1.93-1.61-3.47-3.54-3.45,0,0-.02,0-.02,0-1.99,0-3.32,1.29-3.61,3.45m10.33,2.42h-10.3c.19,2.06,1.95,3.61,4.02,3.56,1.37-.01,2.66-.67,3.48-1.78l2.24,1.59c-2.47,3.15-7.04,3.7-10.19,1.23-1.77-1.39-2.79-3.51-2.78-5.76,0-4.23,2.72-7.3,6.82-7.3s6.77,3.04,6.77,7.38c0,.36,0,.72-.05,1.08" style="fill: #322956;"></path><rect id="Rectangle_665" data-name="Rectangle 665" x="146.28" y="7.1" width="3.18" height="19.67" style="fill: #322956;"></rect><path id="Trac&#xE9;_67543" data-name="Trac&#xE9; 67543" d="M158.43,15.07c-2.34,0-3.72,1.81-3.72,4.72s1.38,4.72,3.72,4.72,3.72-1.8,3.72-4.72-1.38-4.72-3.72-4.72m0,12.02c-4.23,0-6.95-2.94-6.95-7.3s2.72-7.3,6.95-7.3,6.96,2.94,6.96,7.3-2.72,7.3-6.96,7.3" style="fill: #322956;"></path><path id="Trac&#xE9;_67544" data-name="Trac&#xE9; 67544" d="M177.46,19.79c0-2.91-1.13-4.69-3.61-4.69-1.29,.01-2.51,.55-3.4,1.48v6.41c.88,.93,2.11,1.47,3.4,1.48,2.48,0,3.61-1.78,3.61-4.69m-2.8,7.3c-1.56,0-3.07-.6-4.2-1.67v7.06h-3.18V12.81h3.18v1.35c1.14-1.07,2.64-1.67,4.2-1.67,3.83,0,6.04,2.83,6.04,7.3s-2.21,7.3-6.04,7.3" style="fill: #322956;"></path><path id="Trac&#xE9;_67545" data-name="Trac&#xE9; 67545" d="M192.74,19.79c0-2.91-1.13-4.69-3.61-4.69-1.29,.01-2.51,.55-3.4,1.48v6.41c.88,.93,2.11,1.47,3.4,1.48,2.48,0,3.61-1.78,3.61-4.69m-2.8,7.3c-1.56,0-3.07-.6-4.2-1.67v7.06h-3.18V12.81h3.18v1.35c1.14-1.07,2.64-1.67,4.2-1.67,3.83,0,6.04,2.83,6.04,7.3s-2.21,7.3-6.04,7.3" style="fill: #322956;"></path><path id="Trac&#xE9;_67546" data-name="Trac&#xE9; 67546" d="M200.45,18.52h7.17c-.02-1.93-1.61-3.47-3.53-3.45,0,0-.02,0-.02,0-1.99,0-3.32,1.29-3.61,3.45m10.33,2.42h-10.3c.19,2.06,1.95,3.62,4.02,3.56,1.37-.01,2.66-.67,3.48-1.78l2.24,1.59c-2.47,3.15-7.03,3.7-10.19,1.23-1.77-1.39-2.79-3.51-2.78-5.76,0-4.23,2.72-7.3,6.82-7.3s6.77,3.04,6.77,7.38c0,.36,0,.72-.05,1.08" style="fill: #322956;"></path><path id="Trac&#xE9;_67547" data-name="Trac&#xE9; 67547" d="M215.89,26.77h-3.18V12.81h3.18v1.4c1.15-1.09,2.67-1.7,4.26-1.72,1.57-.12,3.07,.69,3.83,2.07,1.28-1.32,3.04-2.06,4.88-2.07,2.91,0,4.53,1.8,4.53,5.15v9.14h-3.18v-8.62c0-1.97-.62-3.07-2.37-3.07-1.28,.06-2.47,.7-3.23,1.72,.04,.41,.06,.83,.05,1.24v8.73h-3.18v-8.62c0-1.97-.57-3.07-2.37-3.07-1.25,.05-2.41,.63-3.2,1.59v10.11Z" style="fill: #322956;"></path><path id="Trac&#xE9;_67548" data-name="Trac&#xE9; 67548" d="M238.37,18.52h7.17c-.02-1.93-1.6-3.47-3.53-3.45,0,0-.02,0-.03,0-1.99,0-3.32,1.29-3.61,3.45m10.33,2.42h-10.3c.19,2.06,1.95,3.62,4.02,3.56,1.37-.01,2.66-.67,3.48-1.78l2.24,1.59c-2.47,3.15-7.03,3.7-10.19,1.23-1.77-1.39-2.79-3.51-2.78-5.76,0-4.23,2.72-7.3,6.82-7.3s6.77,3.04,6.77,7.38c0,.36,0,.72-.05,1.08" style="fill: #322956;"></path><path id="Trac&#xE9;_67549" data-name="Trac&#xE9; 67549" d="M253.81,16.96v9.8h-3.18V12.81h3.18v1.62c1.24-1.25,2.93-1.95,4.69-1.94,2.94,0,4.93,1.83,4.93,5.23v9.05h-3.18v-8.6c0-1.97-.86-3.1-2.7-3.1-1.47,.05-2.84,.74-3.75,1.89" style="fill: #322956;"></path><path id="Trac&#xE9;_67550" data-name="Trac&#xE9; 67550" d="M266.48,22.1v-6.76h-2.45v-2.53h2.45v-4.18h3.18v4.18h3.34v2.53h-3.34v6.87c0,1.56,.51,2.29,2.18,2.29,.4,0,.84,0,1.16-.03v2.53c-.57,.06-1.13,.08-1.7,.08-3.37,0-4.82-1.48-4.82-4.99" style="fill: #322956;"></path><path id="Trac&#xE9;_67551" data-name="Trac&#xE9; 67551" d="M96.02,43.7c-.13-3.05-2.18-5.01-4.74-5.01s-4.61,1.97-4.74,5.01h9.49Zm-11.21,.75c0-4.2,2.67-7.27,6.5-7.27s6.42,2.99,6.42,7.25c0,.24,0,.49-.03,.73h-11.16c.22,2.96,2.1,5.12,5.12,5.12,1.62,.04,3.17-.71,4.15-2l1.24,.89c-1.25,1.67-3.22,2.64-5.31,2.61-4.26,0-6.93-3.31-6.93-7.33" style="fill: #322956;"></path><path id="Trac&#xE9;_67552" data-name="Trac&#xE9; 67552" d="M101.06,47.69v-8.73h-2.78v-1.46h2.78v-4.18h1.62v4.18h3.78v1.46h-3.77v8.63c0,1.99,.84,2.7,2.53,2.7,.43,0,.86-.03,1.21-.06v1.51c-.3,.03-.78,.05-1.1,.05-2.67,0-4.26-1.1-4.26-4.09" style="fill: #322956;"></path><path id="Trac&#xE9;_67553" data-name="Trac&#xE9; 67553" d="M121.51,35.4h-2.72v6.49h2.72c2.72,0,4.1-.97,4.1-3.23s-1.38-3.26-4.1-3.26m.19,9.3h-2.91v6.77h-3.34v-18.86h6.25c4.53,0,7.31,2.02,7.31,6.06s-2.78,6.04-7.31,6.04" style="fill: #322956;"></path><path id="Trac&#xE9;_67554" data-name="Trac&#xE9; 67554" d="M138.38,47.96v-1.46c-.9-.81-2.08-1.26-3.29-1.24-1.72,0-2.83,.65-2.83,1.97s1.1,1.96,2.83,1.96c1.22,.03,2.39-.42,3.29-1.24m0-5.26c0-1.75-.75-2.91-3.18-2.91-1.3,0-2.56,.46-3.56,1.29l-1.83-1.83c1.61-1.36,3.66-2.09,5.77-2.07,4.61,0,5.99,2.48,5.99,6.06v8.22h-3.18v-1.16c-1.12,1-2.59,1.53-4.1,1.48-3.05,0-5.26-1.88-5.26-4.55s2.21-4.55,5.26-4.55c1.48-.04,2.93,.44,4.1,1.35v-1.32Z" style="fill: #322956;"></path><path id="Trac&#xE9;_67555" data-name="Trac&#xE9; 67555" d="M144.26,37.5h3.18v13.96h-3.18v-13.96Zm1.59-2.08c-1.07-.02-1.93-.9-1.91-1.97,.02-1.07,.9-1.93,1.97-1.91,1.06,.02,1.91,.88,1.91,1.94,.01,1.06-.84,1.93-1.9,1.94-.02,0-.04,0-.07,0" style="fill: #322956;"></path><path id="Trac&#xE9;_67556" data-name="Trac&#xE9; 67556" d="M155.57,46.23l-3.45,5.23h-3.42l4.83-7.28-4.37-6.68h3.42l2.99,4.61,2.99-4.61h3.42l-4.37,6.68,4.82,7.28h-3.42l-3.45-5.23Z" style="fill: #322956;"></path></g></g></g></svg>